<?xml version="1.0" ?>
<!DOCTYPE svg  PUBLIC '-//W3C//DTD SVG 1.1//EN'  'http://www.w3.org/Graphics/SVG/1.1/DTD/svg11.dtd'>
<!-- Uploaded to: SVG Repo, www.svgrepo.com, Generator: SVG Repo Mixer Tools -->
<svg fill="#000000" width="800px" height="800px" viewBox="0 0 64 64" enable-background="new 0 0 64 64" version="1.1" xml:space="preserve" xmlns="http://www.w3.org/2000/svg" xmlns:xlink="http://www.w3.org/1999/xlink">
<g id="grid"/>
<g id="Layer_2"/>
<g id="Layer_3"/>
<g id="Layer_4"/>
<g id="Layer_5"/>
<g id="Layer_6"/>
<g id="Layer_7"/>
<g id="Layer_8"/>
<g id="Layer_9"/>
<g id="Layer_10"/>
<g id="Layer_37"/>
<g id="Layer_11"/>
<g id="Layer_12"/>
<g id="Layer_13">
<g>
<g>
<path d="M61.116,59.746H2.884V4.254h58.231V59.746z M4.884,57.746h54.231V6.254H4.884V57.746z"/>
</g>
</g>
<g>
<g>
<g>
<path d="M30.32,52.619c-2.668,0-6.257-1.884-9.367-4.916c-4.363-4.258-4.438-11.077-4.439-11.365l-0.003-0.983l1.084-0.021      c0.728,0,7.228,0.117,11.37,4.161c1.706,1.665,3.087,3.495,3.995,5.292l0.107,0.212l0.028,6.585l-0.427,0.366      C32.037,52.394,31.247,52.619,30.32,52.619z M18.583,37.375c0.196,1.938,0.941,6.139,3.766,8.896      c2.708,2.641,5.837,4.348,7.97,4.348c0.292,0,0.549-0.034,0.77-0.101l-0.022-5.036c-0.811-1.538-2.017-3.108-3.5-4.556      C24.73,38.155,20.522,37.52,18.583,37.375z"/>
</g>
<g>
<polygon points="31.066,47.917 31.066,42.715 33.066,44.841 33.083,45.693 32.814,45.951     "/>
</g>
<g>
<polygon points="31.092,52.75 31.092,49.491 33.496,50.663 32.867,51.85 32.539,52.027     "/>
</g>
<g>
<path d="M34.054,52.653c-0.964,0-1.784-0.234-2.441-0.696l-0.518-0.254l-0.03-6.794l0.198-0.243      c0.884-1.753,2.21-3.515,3.843-5.107c3.772-3.673,9.468-3.958,11.125-3.958c0.193,0,0.298,0.004,0.298,0.004l0.946,0.039      l0.015,0.946c0.004,0.289,0.046,7.125-4.25,11.31C40.229,50.832,36.709,52.653,34.054,52.653z M33.089,50.495      c0.267,0.105,0.59,0.159,0.964,0.159c2.122,0,5.179-1.643,7.79-4.187c2.781-2.708,3.441-6.927,3.598-8.843      c-1.894,0.104-6.146,0.648-8.939,3.367c-1.464,1.428-2.648,2.993-3.434,4.538L33.089,50.495z"/>
</g>
</g>
<g>
<path d="M33.733,33.058h-3.476c-5.312,0-9.633-4.322-9.633-9.634c0-3.719,0.205-6.248,0.645-7.959l0.424-1.649l6.012,5.721     l4.511-8.287l5.058,8.552l5.226-6.646l0.393,2.194c0.324,1.812,0.481,4.453,0.481,8.074     C43.375,28.736,39.05,33.058,33.733,33.058z M22.892,17.716c-0.179,1.444-0.267,3.332-0.267,5.708     c0,4.209,3.424,7.634,7.633,7.634h3.476c4.213,0,7.642-3.424,7.642-7.634c0-2.153-0.056-3.938-0.169-5.386l-4.165,5.296     L32.289,15.3l-4.073,7.482L22.892,17.716z"/>
</g>
<g>
<rect height="2" transform="matrix(0.0025 1 -1 0.0025 73.9188 9.8401)" width="21.167" x="21.444" y="40.973"/>
</g>
</g>
</g>
<g id="Layer_14"/>
<g id="Layer_16"/>
<g id="Layer_17"/>
<g id="Layer_18"/>
<g id="Layer_19"/>
<g id="Layer_20"/>
<g id="Layer_21"/>
<g id="Layer_22"/>
<g id="Layer_23"/>
<g id="Layer_24"/>
<g id="Layer_25"/>
</svg>