<?xml version="1.0" encoding="iso-8859-1"?>
<!-- Uploaded to: SVG Repo, www.svgrepo.com, Generator: SVG Repo Mixer Tools -->
<svg fill="#000000" height="800px" width="800px" version="1.1" id="Layer_1" xmlns="http://www.w3.org/2000/svg" xmlns:xlink="http://www.w3.org/1999/xlink" 
	 viewBox="0 0 512 512" xml:space="preserve">
<g>
	<g>
		<path d="M141.047,327.665c-6.188,0-11.222,5.034-11.222,11.222c0,6.188,5.034,11.222,11.222,11.222s11.222-5.034,11.222-11.222
			C152.269,332.7,147.235,327.665,141.047,327.665z"/>
	</g>
</g>
<g>
	<g>
		<path d="M177.874,327.665c-6.188,0-11.222,5.034-11.222,11.222c0,6.188,5.034,11.222,11.222,11.222s11.222-5.034,11.222-11.222
			C189.096,332.7,184.062,327.665,177.874,327.665z"/>
	</g>
</g>
<g>
	<g>
		<path d="M143.889,121.144c-12.504,0-22.677,10.173-22.677,22.677s10.173,22.677,22.677,22.677s22.677-10.173,22.677-22.677
			C166.566,131.316,156.394,121.144,143.889,121.144z M143.889,146.099c-1.257,0-2.279-1.022-2.279-2.278
			c0-1.257,1.022-2.279,2.279-2.279s2.279,1.022,2.279,2.279C146.168,145.077,145.146,146.099,143.889,146.099z"/>
	</g>
</g>
<g>
	<g>
		<path d="M143.889,51.822c-16.498,0-29.921,13.423-29.921,29.921c0,16.498,13.423,29.92,29.921,29.92s29.921-13.423,29.921-29.921
			S160.388,51.822,143.889,51.822z M143.889,91.266c-5.252,0-9.523-4.271-9.523-9.523c0-5.252,4.272-9.523,9.523-9.523
			s9.523,4.271,9.523,9.523C153.412,86.995,149.141,91.266,143.889,91.266z"/>
	</g>
</g>
<g>
	<g>
		<path d="M111.449,111.098c-3.629-7.121-9.814-12.403-17.414-14.873c-7.601-2.469-15.709-1.832-22.83,1.797
			c-7.121,3.629-12.403,9.813-14.873,17.414c-5.099,15.69,3.52,32.604,19.21,37.703c3.043,0.988,6.167,1.48,9.278,1.479
			c4.657,0,9.282-1.1,13.553-3.276c7.121-3.629,12.403-9.813,14.874-17.414C115.715,126.327,115.077,118.219,111.449,111.098z
			 M93.845,127.625c-0.786,2.419-2.467,4.388-4.733,5.542c-2.266,1.155-4.847,1.357-7.266,0.571
			c-2.419-0.786-4.388-2.467-5.542-4.733c-1.155-2.266-1.359-4.847-0.572-7.266s2.467-4.388,4.733-5.542
			c1.36-0.693,2.83-1.042,4.313-1.042c0.989,0,1.984,0.156,2.953,0.471c2.419,0.786,4.388,2.466,5.542,4.733
			C94.427,122.627,94.63,125.206,93.845,127.625z"/>
	</g>
</g>
<g>
	<g>
		<path d="M136.917,189.478c-1.251-7.893-5.5-14.828-11.967-19.525c-6.465-4.698-14.374-6.597-22.268-5.346
			c-7.894,1.25-14.829,5.499-19.526,11.966c-4.698,6.465-6.597,14.374-5.346,22.268c1.25,7.894,5.5,14.829,11.966,19.526
			c5.168,3.754,11.257,5.721,17.524,5.721c1.574,0,3.16-0.124,4.745-0.375c7.894-1.25,14.829-5.5,19.526-11.966
			C136.268,205.28,138.167,197.371,136.917,189.478z M115.066,199.757c-1.495,2.058-3.701,3.411-6.214,3.808
			c-2.511,0.397-5.029-0.207-7.087-1.701c-2.058-1.495-3.411-3.702-3.808-6.215c-0.398-2.512,0.206-5.029,1.701-7.086
			c1.495-2.058,3.702-3.411,6.214-3.808c0.505-0.081,1.009-0.119,1.509-0.119c1.995,0,3.932,0.626,5.577,1.822
			C117.208,189.541,118.154,195.509,115.066,199.757z"/>
	</g>
</g>
<g>
	<g>
		<path d="M204.624,176.572c-4.698-6.466-11.633-10.715-19.527-11.966c-7.894-1.25-15.803,0.649-22.268,5.346
			c-6.466,4.698-10.715,11.632-11.966,19.526c-1.25,7.893,0.649,15.802,5.346,22.268c4.698,6.465,11.632,10.715,19.526,11.966
			c1.585,0.251,3.17,0.375,4.745,0.375c6.266,0,12.356-1.966,17.524-5.722c6.465-4.698,10.715-11.632,11.966-19.526
			C211.22,190.946,209.321,183.037,204.624,176.572z M189.821,195.649c-0.398,2.512-1.75,4.719-3.808,6.214
			c-2.058,1.495-4.573,2.098-7.087,1.701c-2.512-0.398-4.719-1.75-6.214-3.808c-3.086-4.248-2.142-10.216,2.106-13.302
			c1.645-1.194,3.583-1.821,5.577-1.821c0.501,0,1.006,0.04,1.509,0.119c2.512,0.398,4.719,1.75,6.214,3.808
			C189.615,190.62,190.219,193.137,189.821,195.649z"/>
	</g>
</g>
<g>
	<g>
		<path d="M231.447,115.436c-5.099-15.69-22.012-24.308-37.703-19.21c-15.691,5.099-24.309,22.012-19.211,37.703
			c2.47,7.602,7.752,13.785,14.874,17.414c4.27,2.175,8.895,3.276,13.553,3.276c3.11,0,6.235-0.491,9.278-1.479
			C227.929,148.04,236.546,131.127,231.447,115.436z M211.475,129.005c-1.155,2.266-3.123,3.948-5.542,4.733
			c-2.419,0.786-4.999,0.584-7.266-0.572c-2.266-1.155-3.948-3.123-4.733-5.542c-1.623-4.994,1.12-10.377,6.114-11.999
			c0.974-0.317,1.963-0.467,2.935-0.467c4.015,0,7.758,2.561,9.064,6.582C212.834,124.158,212.631,126.739,211.475,129.005z"/>
	</g>
</g>
<g>
	<g>
		<path d="M366.332,121.144c-12.504,0-22.677,10.173-22.677,22.677s10.173,22.677,22.677,22.677
			c12.504,0,22.677-10.173,22.677-22.677C389.009,131.316,378.836,121.144,366.332,121.144z M366.332,146.099
			c-1.257,0-2.279-1.022-2.279-2.278c0-1.257,1.022-2.279,2.279-2.279s2.279,1.022,2.279,2.279
			C368.61,145.077,367.588,146.099,366.332,146.099z"/>
	</g>
</g>
<g>
	<g>
		<path d="M366.332,51.822c-16.499,0-29.921,13.422-29.921,29.92s13.423,29.921,29.921,29.921s29.921-13.423,29.921-29.921
			S382.831,51.822,366.332,51.822z M366.332,91.266c-5.252,0-9.523-4.271-9.523-9.523c0-5.252,4.272-9.523,9.523-9.523
			c5.251,0,9.523,4.271,9.523,9.523C375.855,86.995,371.583,91.266,366.332,91.266z"/>
	</g>
</g>
<g>
	<g>
		<path d="M333.892,111.098c-3.629-7.121-9.814-12.403-17.414-14.873c-7.6-2.469-15.71-1.832-22.83,1.797
			c-7.121,3.629-12.403,9.814-14.874,17.414c-2.469,7.602-1.832,15.709,1.797,22.83c3.629,7.121,9.812,12.403,17.413,14.872
			c3.043,0.988,6.167,1.48,9.278,1.48c4.657,0,9.282-1.1,13.553-3.276c7.121-3.629,12.403-9.814,14.873-17.414
			C338.159,126.327,337.521,118.219,333.892,111.098z M316.289,127.626c-0.786,2.419-2.466,4.387-4.733,5.542
			c-2.266,1.156-4.847,1.359-7.266,0.572c-2.419-0.786-4.388-2.467-5.542-4.733c-1.156-2.268-1.359-4.849-0.572-7.268
			s2.466-4.387,4.733-5.542c1.36-0.693,2.83-1.042,4.313-1.042c0.989,0,1.984,0.156,2.953,0.471
			c2.419,0.786,4.387,2.466,5.542,4.733C316.872,122.627,317.075,125.206,316.289,127.626z"/>
	</g>
</g>
<g>
	<g>
		<path d="M347.393,169.953c-6.466-4.698-14.375-6.596-22.268-5.346c-7.894,1.25-14.829,5.499-19.526,11.966
			c-4.698,6.465-6.597,14.374-5.346,22.268c1.25,7.894,5.499,14.829,11.966,19.526c5.168,3.755,11.257,5.722,17.523,5.722
			c1.574,0,3.16-0.124,4.745-0.375c7.894-1.25,14.829-5.5,19.526-11.966C363.71,198.4,360.741,179.651,347.393,169.953z
			 M337.51,199.757c-1.495,2.058-3.702,3.411-6.215,3.808c-2.509,0.398-5.028-0.206-7.086-1.701
			c-2.058-1.495-3.411-3.702-3.808-6.214c-0.398-2.512,0.206-5.029,1.701-7.087c1.861-2.562,4.769-3.923,7.717-3.923
			c1.94,0,3.898,0.591,5.585,1.815C339.651,189.541,340.596,195.509,337.51,199.757z"/>
	</g>
</g>
<g>
	<g>
		<path d="M427.066,176.573c-4.698-6.467-11.633-10.716-19.526-11.967c-7.895-1.25-15.803,0.649-22.268,5.346
			s-10.715,11.632-11.966,19.526c-1.25,7.894,0.648,15.803,5.345,22.268c4.698,6.465,11.632,10.715,19.526,11.966
			c1.585,0.251,3.17,0.375,4.745,0.375c6.266,0,12.356-1.966,17.523-5.721C433.794,208.67,436.764,189.921,427.066,176.573z
			 M408.456,201.864c-2.058,1.494-4.575,2.097-7.086,1.701c-2.512-0.398-4.719-1.75-6.214-3.808c-1.495-2.058-2.1-4.574-1.701-7.087
			c0.398-2.512,1.75-4.719,3.808-6.214c2.058-1.495,4.575-2.101,7.087-1.701c2.512,0.398,4.719,1.75,6.214,3.808
			C413.649,192.81,412.705,198.778,408.456,201.864z"/>
	</g>
</g>
<g>
	<g>
		<path d="M453.89,115.436c-2.47-7.602-7.752-13.785-14.874-17.414c-7.121-3.629-15.229-4.266-22.83-1.797
			c-7.602,2.469-13.786,7.751-17.414,14.874c-3.628,7.121-4.266,15.228-1.796,22.83c4.104,12.631,15.863,20.678,28.478,20.678
			c3.057,0,6.165-0.473,9.225-1.467C450.37,148.041,458.988,131.128,453.89,115.436z M428.376,133.738
			c-4.996,1.624-10.378-1.12-11.999-6.114c-0.786-2.417-0.583-4.999,0.572-7.265c1.155-2.266,3.123-3.947,5.542-4.733
			c0.969-0.315,1.962-0.471,2.953-0.471c1.482,0,2.954,0.35,4.313,1.042c2.266,1.155,3.948,3.123,4.733,5.542
			C436.113,126.732,433.37,132.115,428.376,133.738z"/>
	</g>
</g>
<g>
	<g>
		<path d="M501.801,274.769h-38.28c-5.633,0-10.199,4.566-10.199,10.199v12.008h-36.066H304.858l34.581-34.581
			c8.654,1.961,17.653,3.003,26.892,3.003c67.037,0,121.577-54.539,121.577-121.577S433.369,22.245,366.332,22.245
			c-49.584,0-92.324,29.842-111.221,72.505c-18.897-42.663-61.637-72.505-111.221-72.505c-67.037,0-121.577,54.539-121.577,121.576
			c0,67.037,54.539,121.577,121.577,121.577c3.806,0,7.571-0.185,11.288-0.528l32.108,32.108h-81.021
			c-5.633,0-10.199,4.566-10.199,10.199v12.456l-83.122-23.221c-3.072-0.858-6.369-0.229-8.91,1.699
			C1.492,300.04,0,303.044,0,306.235v173.321c0,3.181,1.484,6.181,4.013,8.109c1.797,1.371,3.975,2.09,6.186,2.09
			c0.901,0,1.807-0.119,2.696-0.363l83.17-22.798v12.444c0,5.633,4.566,10.199,10.199,10.199h310.991
			c5.633,0,10.199-4.566,10.199-10.199V365.346h25.867v12.008c0,5.633,4.566,10.199,10.199,10.199h38.28
			c5.633,0,10.199-4.566,10.199-10.199v-92.385C512,279.335,507.434,274.769,501.801,274.769z M96.065,445.443l-75.667,20.742
			V319.673l75.667,21.137V445.443z M265.324,138.024c3.015-53.103,47.164-95.381,101.008-95.381
			c55.79,0,101.178,45.387,101.178,101.177c0,55.79-45.388,101.178-101.178,101.178c-53.844,0-97.993-42.279-101.008-95.381
			c0.091-1.922,0.142-3.853,0.142-5.797S265.415,139.945,265.324,138.024z M143.889,244.999
			C88.1,244.998,42.711,199.61,42.711,143.82c0-55.79,45.388-101.177,101.178-101.177c53.844,0,97.993,42.279,101.008,95.381
			c-0.091,1.922-0.142,3.853-0.142,5.796c0,1.943,0.051,3.876,0.142,5.797C241.882,202.72,197.733,244.999,143.889,244.999z
			 M179.292,260.132c33.934-10.349,61.613-35.171,75.819-67.242c12.316,27.805,34.759,50.159,62.625,62.359l-40.065,40.065
			c-0.515,0.515-0.961,1.074-1.343,1.661h-60.979c-0.481-0.982-1.122-1.906-1.939-2.724L179.292,260.132z M407.056,468.839H116.464
			V317.374h290.593V468.839z M453.322,344.948h-25.867v-27.574h25.867V344.948z M491.602,367.155H473.72v-71.987h17.881V367.155z"/>
	</g>
</g>
<g>
	<g>
		<path d="M371.012,434.812h-13.823c-5.633,0-10.199,4.566-10.199,10.199s4.566,10.199,10.199,10.199h13.823
			c5.633,0,10.199-4.566,10.199-10.199S376.645,434.812,371.012,434.812z"/>
	</g>
</g>
<g>
	<g>
		<path d="M310.403,434.812H148.779c-5.633,0-10.199,4.566-10.199,10.199s4.566,10.199,10.199,10.199h161.624
			c5.633,0,10.199-4.566,10.199-10.199S316.036,434.812,310.403,434.812z"/>
	</g>
</g>
</svg>