<?xml version="1.0" ?>
<!DOCTYPE svg  PUBLIC '-//W3C//DTD SVG 1.1//EN'  'http://www.w3.org/Graphics/SVG/1.1/DTD/svg11.dtd'>
<!-- Uploaded to: SVG Repo, www.svgrepo.com, Generator: SVG Repo Mixer Tools -->
<svg fill="#000000" width="800px" height="800px" viewBox="0 0 64 64" enable-background="new 0 0 64 64" version="1.1" xml:space="preserve" xmlns="http://www.w3.org/2000/svg" xmlns:xlink="http://www.w3.org/1999/xlink">
<g id="grid"/>
<g id="Layer_2"/>
<g id="Layer_3"/>
<g id="Layer_4"/>
<g id="Layer_5"/>
<g id="Layer_6"/>
<g id="Layer_7"/>
<g id="Layer_8">
<g>
<g>
<path d="M34.513,61.674h-5.138V12.302h5.138V61.674z M31.375,59.674h1.138V14.302h-1.138V59.674z"/>
</g>
<g>
<g>
<path d="M2.97,61.617l28.405-47.325v9.819L9.434,61.583L2.97,61.617z M29.375,21.51L6.514,59.598l1.77-0.009l21.091-36.021      V21.51z"/>
</g>
</g>
<g>
<g>
<path d="M61.03,61.492l-6.464-0.033L32.625,23.986v-9.819L61.03,61.492z M55.716,59.464l1.77,0.009L34.625,21.385v2.059      L55.716,59.464z"/>
</g>
</g>
<g>
<path d="M40.543,14.209H23.646V2.326h16.897V14.209z M25.646,12.209h12.897V4.326H25.646V12.209z"/>
</g>
<g>
<rect height="2.479" width="7.682" x="17.759" y="6.208"/>
</g>
<g>
<path d="M7.228,10.967v-7.24l11.925,1.136v4.969L7.228,10.967z M9.228,5.926v2.842l7.925-0.755V6.681L9.228,5.926z"/>
</g>
</g>
</g>
<g id="Layer_9"/>
<g id="Layer_10"/>
<g id="Layer_37"/>
<g id="Layer_11"/>
<g id="Layer_12"/>
<g id="Layer_13"/>
<g id="Layer_14"/>
<g id="Layer_16"/>
<g id="Layer_17"/>
<g id="Layer_18"/>
<g id="Layer_19"/>
<g id="Layer_20"/>
<g id="Layer_21"/>
<g id="Layer_22"/>
<g id="Layer_23"/>
<g id="Layer_24"/>
<g id="Layer_25"/>
</svg>